<mxfile host="Electron" modified="2023-05-26T06:33:17.277Z" agent="Mozilla/5.0 (Windows NT 10.0; Win64; x64) AppleWebKit/537.36 (KHTML, like Gecko) draw.io/21.2.8 Chrome/112.0.5615.165 Electron/24.2.0 Safari/537.36" etag="Kf-u3u_D94Lgyly7AvQd" version="21.2.8" type="device">
  <diagram name="Page-1" id="mIgW5LdyZn4E0YwN7OKZ">
    <mxGraphModel dx="1702" dy="524" grid="1" gridSize="10" guides="1" tooltips="1" connect="1" arrows="1" fold="1" page="1" pageScale="1" pageWidth="827" pageHeight="1169" math="0" shadow="0">
      <root>
        <mxCell id="0" />
        <mxCell id="1" parent="0" />
        <mxCell id="udiWFCo5soZwDzuzJyZp-1" value="&lt;font size=&quot;3&quot;&gt;Registration&lt;/font&gt;" style="ellipse;whiteSpace=wrap;html=1;" vertex="1" parent="1">
          <mxGeometry x="320" y="120" width="120" height="80" as="geometry" />
        </mxCell>
        <mxCell id="udiWFCo5soZwDzuzJyZp-2" value="&lt;font size=&quot;3&quot;&gt;Login&lt;/font&gt;" style="ellipse;whiteSpace=wrap;html=1;" vertex="1" parent="1">
          <mxGeometry x="320" y="240" width="120" height="80" as="geometry" />
        </mxCell>
        <mxCell id="udiWFCo5soZwDzuzJyZp-3" value="&lt;font size=&quot;3&quot;&gt;Username&lt;/font&gt;" style="ellipse;whiteSpace=wrap;html=1;" vertex="1" parent="1">
          <mxGeometry x="250" y="360" width="120" height="80" as="geometry" />
        </mxCell>
        <mxCell id="udiWFCo5soZwDzuzJyZp-4" value="&lt;font size=&quot;3&quot;&gt;Password&lt;/font&gt;" style="ellipse;whiteSpace=wrap;html=1;" vertex="1" parent="1">
          <mxGeometry x="390" y="360" width="120" height="80" as="geometry" />
        </mxCell>
        <mxCell id="udiWFCo5soZwDzuzJyZp-6" value="&lt;font size=&quot;3&quot;&gt;Select&lt;br&gt;Product&lt;br&gt;&lt;/font&gt;" style="ellipse;whiteSpace=wrap;html=1;" vertex="1" parent="1">
          <mxGeometry x="330" y="480" width="120" height="80" as="geometry" />
        </mxCell>
        <mxCell id="udiWFCo5soZwDzuzJyZp-7" value="&lt;font size=&quot;3&quot;&gt;Buy&lt;/font&gt;" style="ellipse;whiteSpace=wrap;html=1;" vertex="1" parent="1">
          <mxGeometry x="390" y="585" width="120" height="80" as="geometry" />
        </mxCell>
        <mxCell id="udiWFCo5soZwDzuzJyZp-8" value="&lt;font size=&quot;3&quot;&gt;Add To&lt;br&gt;Cart&lt;br&gt;&lt;/font&gt;" style="ellipse;whiteSpace=wrap;html=1;" vertex="1" parent="1">
          <mxGeometry x="250" y="585" width="120" height="80" as="geometry" />
        </mxCell>
        <mxCell id="udiWFCo5soZwDzuzJyZp-10" value="&lt;font size=&quot;3&quot;&gt;Payment&lt;/font&gt;" style="ellipse;whiteSpace=wrap;html=1;" vertex="1" parent="1">
          <mxGeometry x="320" y="720" width="120" height="80" as="geometry" />
        </mxCell>
        <mxCell id="udiWFCo5soZwDzuzJyZp-11" value="&lt;font size=&quot;3&quot;&gt;COD&lt;/font&gt;" style="ellipse;whiteSpace=wrap;html=1;" vertex="1" parent="1">
          <mxGeometry x="250" y="840" width="120" height="80" as="geometry" />
        </mxCell>
        <mxCell id="udiWFCo5soZwDzuzJyZp-12" value="&lt;font size=&quot;3&quot;&gt;Online&lt;/font&gt;" style="ellipse;whiteSpace=wrap;html=1;" vertex="1" parent="1">
          <mxGeometry x="390" y="840" width="120" height="80" as="geometry" />
        </mxCell>
        <mxCell id="udiWFCo5soZwDzuzJyZp-13" value="&lt;font size=&quot;3&quot;&gt;Message and Delivery Location&lt;/font&gt;" style="ellipse;whiteSpace=wrap;html=1;" vertex="1" parent="1">
          <mxGeometry x="330" y="960" width="120" height="80" as="geometry" />
        </mxCell>
        <mxCell id="udiWFCo5soZwDzuzJyZp-14" value="&lt;font size=&quot;3&quot;&gt;Product &lt;br&gt;Details&lt;/font&gt;" style="ellipse;whiteSpace=wrap;html=1;" vertex="1" parent="1">
          <mxGeometry x="250" y="1170" width="120" height="80" as="geometry" />
        </mxCell>
        <mxCell id="udiWFCo5soZwDzuzJyZp-15" value="&lt;font size=&quot;3&quot;&gt;Estimated&lt;br&gt;Date&lt;br&gt;&lt;/font&gt;" style="ellipse;whiteSpace=wrap;html=1;" vertex="1" parent="1">
          <mxGeometry x="414" y="1169" width="120" height="80" as="geometry" />
        </mxCell>
        <mxCell id="udiWFCo5soZwDzuzJyZp-16" value="&lt;font size=&quot;3&quot;&gt;Feeback&lt;/font&gt;" style="ellipse;whiteSpace=wrap;html=1;" vertex="1" parent="1">
          <mxGeometry x="320" y="1290" width="120" height="80" as="geometry" />
        </mxCell>
        <mxCell id="udiWFCo5soZwDzuzJyZp-17" value="&lt;font size=&quot;3&quot;&gt;Logout&lt;/font&gt;" style="ellipse;whiteSpace=wrap;html=1;" vertex="1" parent="1">
          <mxGeometry x="320" y="1430" width="120" height="80" as="geometry" />
        </mxCell>
        <mxCell id="udiWFCo5soZwDzuzJyZp-18" value="&lt;font size=&quot;3&quot;&gt;Order&lt;br&gt;Confrimation&lt;br&gt;&lt;/font&gt;" style="ellipse;whiteSpace=wrap;html=1;" vertex="1" parent="1">
          <mxGeometry x="330" y="1080" width="120" height="80" as="geometry" />
        </mxCell>
        <mxCell id="udiWFCo5soZwDzuzJyZp-19" value="&lt;font style=&quot;font-size: 24px;&quot;&gt;User&lt;/font&gt;" style="shape=umlActor;verticalLabelPosition=bottom;verticalAlign=top;html=1;outlineConnect=0;" vertex="1" parent="1">
          <mxGeometry x="-350" y="670" width="150" height="180" as="geometry" />
        </mxCell>
        <mxCell id="udiWFCo5soZwDzuzJyZp-20" value="" style="swimlane;startSize=0;" vertex="1" parent="1">
          <mxGeometry x="120" y="60" width="560" height="1540" as="geometry" />
        </mxCell>
        <mxCell id="udiWFCo5soZwDzuzJyZp-25" value="" style="endArrow=none;html=1;rounded=0;exitX=1;exitY=0.3333333333333333;exitDx=0;exitDy=0;exitPerimeter=0;" edge="1" parent="udiWFCo5soZwDzuzJyZp-20" source="udiWFCo5soZwDzuzJyZp-19">
          <mxGeometry width="50" height="50" relative="1" as="geometry">
            <mxPoint x="140" y="160" as="sourcePoint" />
            <mxPoint x="200" y="100" as="targetPoint" />
          </mxGeometry>
        </mxCell>
        <mxCell id="udiWFCo5soZwDzuzJyZp-26" value="" style="endArrow=none;html=1;rounded=0;" edge="1" parent="udiWFCo5soZwDzuzJyZp-20">
          <mxGeometry width="50" height="50" relative="1" as="geometry">
            <mxPoint x="-320" y="670" as="sourcePoint" />
            <mxPoint x="200" y="220" as="targetPoint" />
          </mxGeometry>
        </mxCell>
        <mxCell id="udiWFCo5soZwDzuzJyZp-28" value="" style="endArrow=none;html=1;rounded=0;" edge="1" parent="udiWFCo5soZwDzuzJyZp-20">
          <mxGeometry width="50" height="50" relative="1" as="geometry">
            <mxPoint x="-310" y="670" as="sourcePoint" />
            <mxPoint x="200" y="700" as="targetPoint" />
          </mxGeometry>
        </mxCell>
        <mxCell id="udiWFCo5soZwDzuzJyZp-29" value="" style="endArrow=none;html=1;rounded=0;" edge="1" parent="udiWFCo5soZwDzuzJyZp-20">
          <mxGeometry width="50" height="50" relative="1" as="geometry">
            <mxPoint x="-320" y="670" as="sourcePoint" />
            <mxPoint x="210" y="940" as="targetPoint" />
          </mxGeometry>
        </mxCell>
        <mxCell id="udiWFCo5soZwDzuzJyZp-30" value="" style="endArrow=none;html=1;rounded=0;" edge="1" parent="udiWFCo5soZwDzuzJyZp-20">
          <mxGeometry width="50" height="50" relative="1" as="geometry">
            <mxPoint x="-320" y="670" as="sourcePoint" />
            <mxPoint x="210" y="1050" as="targetPoint" />
          </mxGeometry>
        </mxCell>
        <mxCell id="udiWFCo5soZwDzuzJyZp-31" value="" style="endArrow=none;html=1;rounded=0;exitX=1;exitY=0.3333333333333333;exitDx=0;exitDy=0;exitPerimeter=0;" edge="1" parent="udiWFCo5soZwDzuzJyZp-20" source="udiWFCo5soZwDzuzJyZp-19">
          <mxGeometry width="50" height="50" relative="1" as="geometry">
            <mxPoint x="150" y="1320" as="sourcePoint" />
            <mxPoint x="200" y="1270" as="targetPoint" />
          </mxGeometry>
        </mxCell>
        <mxCell id="udiWFCo5soZwDzuzJyZp-32" value="" style="endArrow=none;html=1;rounded=0;" edge="1" parent="udiWFCo5soZwDzuzJyZp-20">
          <mxGeometry width="50" height="50" relative="1" as="geometry">
            <mxPoint x="-310" y="680" as="sourcePoint" />
            <mxPoint x="200" y="1410" as="targetPoint" />
          </mxGeometry>
        </mxCell>
        <mxCell id="udiWFCo5soZwDzuzJyZp-33" value="" style="endArrow=none;html=1;rounded=0;" edge="1" parent="udiWFCo5soZwDzuzJyZp-20">
          <mxGeometry width="50" height="50" relative="1" as="geometry">
            <mxPoint x="320" y="100" as="sourcePoint" />
            <mxPoint x="880" y="670" as="targetPoint" />
          </mxGeometry>
        </mxCell>
        <mxCell id="udiWFCo5soZwDzuzJyZp-34" value="" style="endArrow=none;html=1;rounded=0;entryX=0;entryY=0.3333333333333333;entryDx=0;entryDy=0;entryPerimeter=0;" edge="1" parent="udiWFCo5soZwDzuzJyZp-20" target="udiWFCo5soZwDzuzJyZp-21">
          <mxGeometry width="50" height="50" relative="1" as="geometry">
            <mxPoint x="320" y="220" as="sourcePoint" />
            <mxPoint x="370" y="170" as="targetPoint" />
          </mxGeometry>
        </mxCell>
        <mxCell id="udiWFCo5soZwDzuzJyZp-35" value="" style="endArrow=none;html=1;rounded=0;entryX=0;entryY=0.3333333333333333;entryDx=0;entryDy=0;entryPerimeter=0;" edge="1" parent="udiWFCo5soZwDzuzJyZp-20" target="udiWFCo5soZwDzuzJyZp-21">
          <mxGeometry width="50" height="50" relative="1" as="geometry">
            <mxPoint x="330" y="460" as="sourcePoint" />
            <mxPoint x="380" y="410" as="targetPoint" />
          </mxGeometry>
        </mxCell>
        <mxCell id="udiWFCo5soZwDzuzJyZp-36" value="" style="endArrow=none;html=1;rounded=0;" edge="1" parent="udiWFCo5soZwDzuzJyZp-20">
          <mxGeometry width="50" height="50" relative="1" as="geometry">
            <mxPoint x="320" y="700" as="sourcePoint" />
            <mxPoint x="890" y="680" as="targetPoint" />
          </mxGeometry>
        </mxCell>
        <mxCell id="udiWFCo5soZwDzuzJyZp-37" value="" style="endArrow=none;html=1;rounded=0;" edge="1" parent="udiWFCo5soZwDzuzJyZp-20">
          <mxGeometry width="50" height="50" relative="1" as="geometry">
            <mxPoint x="330" y="940" as="sourcePoint" />
            <mxPoint x="880" y="680" as="targetPoint" />
          </mxGeometry>
        </mxCell>
        <mxCell id="udiWFCo5soZwDzuzJyZp-38" value="" style="endArrow=none;html=1;rounded=0;entryX=0;entryY=0.3333333333333333;entryDx=0;entryDy=0;entryPerimeter=0;" edge="1" parent="udiWFCo5soZwDzuzJyZp-20" target="udiWFCo5soZwDzuzJyZp-21">
          <mxGeometry width="50" height="50" relative="1" as="geometry">
            <mxPoint x="330" y="1060" as="sourcePoint" />
            <mxPoint x="380" y="1010" as="targetPoint" />
          </mxGeometry>
        </mxCell>
        <mxCell id="udiWFCo5soZwDzuzJyZp-39" value="" style="endArrow=none;html=1;rounded=0;" edge="1" parent="udiWFCo5soZwDzuzJyZp-20">
          <mxGeometry width="50" height="50" relative="1" as="geometry">
            <mxPoint x="320" y="1260" as="sourcePoint" />
            <mxPoint x="890" y="680" as="targetPoint" />
          </mxGeometry>
        </mxCell>
        <mxCell id="udiWFCo5soZwDzuzJyZp-40" value="" style="endArrow=none;html=1;rounded=0;entryX=0;entryY=0.3333333333333333;entryDx=0;entryDy=0;entryPerimeter=0;" edge="1" parent="udiWFCo5soZwDzuzJyZp-20" target="udiWFCo5soZwDzuzJyZp-21">
          <mxGeometry width="50" height="50" relative="1" as="geometry">
            <mxPoint x="320" y="1420" as="sourcePoint" />
            <mxPoint x="370" y="1370" as="targetPoint" />
          </mxGeometry>
        </mxCell>
        <mxCell id="udiWFCo5soZwDzuzJyZp-42" value="" style="endArrow=block;dashed=1;endFill=0;endSize=12;html=1;rounded=0;entryX=0;entryY=1;entryDx=0;entryDy=0;" edge="1" parent="udiWFCo5soZwDzuzJyZp-20" target="udiWFCo5soZwDzuzJyZp-2">
          <mxGeometry width="160" relative="1" as="geometry">
            <mxPoint x="190" y="300" as="sourcePoint" />
            <mxPoint x="350" y="290" as="targetPoint" />
          </mxGeometry>
        </mxCell>
        <mxCell id="udiWFCo5soZwDzuzJyZp-44" value="" style="endArrow=block;dashed=1;endFill=0;endSize=12;html=1;rounded=0;entryX=0.5;entryY=0;entryDx=0;entryDy=0;" edge="1" parent="udiWFCo5soZwDzuzJyZp-20" target="udiWFCo5soZwDzuzJyZp-8">
          <mxGeometry width="160" relative="1" as="geometry">
            <mxPoint x="230" y="490" as="sourcePoint" />
            <mxPoint x="400" y="500" as="targetPoint" />
          </mxGeometry>
        </mxCell>
        <mxCell id="udiWFCo5soZwDzuzJyZp-46" value="" style="endArrow=block;dashed=1;endFill=0;endSize=12;html=1;rounded=0;entryX=0.259;entryY=0.973;entryDx=0;entryDy=0;entryPerimeter=0;" edge="1" parent="udiWFCo5soZwDzuzJyZp-20" target="udiWFCo5soZwDzuzJyZp-10">
          <mxGeometry width="160" relative="1" as="geometry">
            <mxPoint x="190" y="780" as="sourcePoint" />
            <mxPoint x="350" y="780" as="targetPoint" />
          </mxGeometry>
        </mxCell>
        <mxCell id="udiWFCo5soZwDzuzJyZp-47" value="" style="endArrow=block;dashed=1;endFill=0;endSize=12;html=1;rounded=0;entryX=0.752;entryY=0.965;entryDx=0;entryDy=0;entryPerimeter=0;" edge="1" parent="udiWFCo5soZwDzuzJyZp-20" target="udiWFCo5soZwDzuzJyZp-10">
          <mxGeometry width="160" relative="1" as="geometry">
            <mxPoint x="330" y="780" as="sourcePoint" />
            <mxPoint x="490" y="780" as="targetPoint" />
          </mxGeometry>
        </mxCell>
        <mxCell id="udiWFCo5soZwDzuzJyZp-51" value="" style="endArrow=block;dashed=1;endFill=0;endSize=12;html=1;rounded=0;" edge="1" parent="udiWFCo5soZwDzuzJyZp-20" target="udiWFCo5soZwDzuzJyZp-15">
          <mxGeometry width="160" relative="1" as="geometry">
            <mxPoint x="310" y="1090" as="sourcePoint" />
            <mxPoint x="470" y="1090" as="targetPoint" />
          </mxGeometry>
        </mxCell>
        <mxCell id="udiWFCo5soZwDzuzJyZp-52" value="&amp;lt;&amp;lt;Include&amp;gt;&amp;gt;" style="text;html=1;strokeColor=none;fillColor=none;align=center;verticalAlign=middle;whiteSpace=wrap;rounded=0;rotation=60;" vertex="1" parent="udiWFCo5soZwDzuzJyZp-20">
          <mxGeometry x="310" y="250" width="60" height="30" as="geometry" />
        </mxCell>
        <mxCell id="udiWFCo5soZwDzuzJyZp-53" value="&amp;lt;&amp;lt;Include&amp;gt;&amp;gt;" style="text;html=1;strokeColor=none;fillColor=none;align=center;verticalAlign=middle;whiteSpace=wrap;rounded=0;rotation=-65;" vertex="1" parent="udiWFCo5soZwDzuzJyZp-20">
          <mxGeometry x="160" y="250" width="60" height="30" as="geometry" />
        </mxCell>
        <mxCell id="udiWFCo5soZwDzuzJyZp-54" value="&amp;lt;&amp;lt;Exclude&amp;gt;&amp;gt;" style="text;html=1;strokeColor=none;fillColor=none;align=center;verticalAlign=middle;whiteSpace=wrap;rounded=0;rotation=60;" vertex="1" parent="udiWFCo5soZwDzuzJyZp-20">
          <mxGeometry x="316.3" y="490" width="47.4" height="24" as="geometry" />
        </mxCell>
        <mxCell id="udiWFCo5soZwDzuzJyZp-55" value="&amp;lt;&amp;lt;Exclude&amp;gt;&amp;gt;" style="text;html=1;strokeColor=none;fillColor=none;align=center;verticalAlign=middle;whiteSpace=wrap;rounded=0;rotation=-41;" vertex="1" parent="udiWFCo5soZwDzuzJyZp-20">
          <mxGeometry x="172.6" y="490" width="47.4" height="24" as="geometry" />
        </mxCell>
        <mxCell id="udiWFCo5soZwDzuzJyZp-56" value="&amp;lt;&amp;lt;Include&amp;gt;&amp;gt;" style="text;html=1;strokeColor=none;fillColor=none;align=center;verticalAlign=middle;whiteSpace=wrap;rounded=0;rotation=50;" vertex="1" parent="udiWFCo5soZwDzuzJyZp-20">
          <mxGeometry x="310" y="730" width="60" height="30" as="geometry" />
        </mxCell>
        <mxCell id="udiWFCo5soZwDzuzJyZp-57" value="&amp;lt;&amp;lt;Include&amp;gt;&amp;gt;" style="text;html=1;strokeColor=none;fillColor=none;align=center;verticalAlign=middle;whiteSpace=wrap;rounded=0;rotation=-45;" vertex="1" parent="udiWFCo5soZwDzuzJyZp-20">
          <mxGeometry x="150.00000000000003" y="730" width="60" height="30" as="geometry" />
        </mxCell>
        <mxCell id="udiWFCo5soZwDzuzJyZp-58" value="&amp;lt;&amp;lt;Exclude&amp;gt;&amp;gt;" style="text;html=1;strokeColor=none;fillColor=none;align=center;verticalAlign=middle;whiteSpace=wrap;rounded=0;rotation=-3;" vertex="1" parent="udiWFCo5soZwDzuzJyZp-20">
          <mxGeometry x="332.6" y="1075.67" width="37.4" height="24" as="geometry" />
        </mxCell>
        <mxCell id="udiWFCo5soZwDzuzJyZp-87" value="&amp;lt;&amp;lt;Exclude&amp;gt;&amp;gt;" style="text;html=1;strokeColor=none;fillColor=none;align=center;verticalAlign=middle;whiteSpace=wrap;rounded=0;rotation=-3;" vertex="1" parent="udiWFCo5soZwDzuzJyZp-20">
          <mxGeometry x="160" y="1075.67" width="37.4" height="24" as="geometry" />
        </mxCell>
        <mxCell id="udiWFCo5soZwDzuzJyZp-88" value="&lt;font style=&quot;font-size: 24px;&quot;&gt;SYSTEM&lt;/font&gt;" style="text;html=1;strokeColor=none;fillColor=none;align=center;verticalAlign=middle;whiteSpace=wrap;rounded=0;" vertex="1" parent="udiWFCo5soZwDzuzJyZp-20">
          <mxGeometry x="234" width="60" height="30" as="geometry" />
        </mxCell>
        <mxCell id="udiWFCo5soZwDzuzJyZp-21" value="&lt;font style=&quot;font-size: 24px;&quot;&gt;Admin&lt;/font&gt;" style="shape=umlActor;verticalLabelPosition=bottom;verticalAlign=top;html=1;outlineConnect=0;" vertex="1" parent="1">
          <mxGeometry x="1010" y="680" width="150" height="170" as="geometry" />
        </mxCell>
        <mxCell id="udiWFCo5soZwDzuzJyZp-27" value="" style="endArrow=none;html=1;rounded=0;entryX=1;entryY=0.3333333333333333;entryDx=0;entryDy=0;entryPerimeter=0;" edge="1" parent="1" target="udiWFCo5soZwDzuzJyZp-19">
          <mxGeometry width="50" height="50" relative="1" as="geometry">
            <mxPoint x="330" y="520" as="sourcePoint" />
            <mxPoint x="379.28932188134524" y="580" as="targetPoint" />
          </mxGeometry>
        </mxCell>
        <mxCell id="udiWFCo5soZwDzuzJyZp-43" value="" style="endArrow=block;dashed=1;endFill=0;endSize=12;html=1;rounded=0;entryX=1;entryY=1;entryDx=0;entryDy=0;exitX=0.5;exitY=0;exitDx=0;exitDy=0;" edge="1" parent="1" source="udiWFCo5soZwDzuzJyZp-4" target="udiWFCo5soZwDzuzJyZp-2">
          <mxGeometry width="160" relative="1" as="geometry">
            <mxPoint x="320" y="370" as="sourcePoint" />
            <mxPoint x="348" y="318" as="targetPoint" />
          </mxGeometry>
        </mxCell>
        <mxCell id="udiWFCo5soZwDzuzJyZp-45" value="" style="endArrow=block;dashed=1;endFill=0;endSize=12;html=1;rounded=0;entryX=0.5;entryY=0;entryDx=0;entryDy=0;exitX=0.82;exitY=0.947;exitDx=0;exitDy=0;exitPerimeter=0;" edge="1" parent="1" source="udiWFCo5soZwDzuzJyZp-6" target="udiWFCo5soZwDzuzJyZp-7">
          <mxGeometry width="160" relative="1" as="geometry">
            <mxPoint x="430" y="560" as="sourcePoint" />
            <mxPoint x="590" y="560" as="targetPoint" />
          </mxGeometry>
        </mxCell>
        <mxCell id="udiWFCo5soZwDzuzJyZp-50" value="" style="endArrow=block;dashed=1;endFill=0;endSize=12;html=1;rounded=0;entryX=0.657;entryY=0.027;entryDx=0;entryDy=0;entryPerimeter=0;exitX=0;exitY=1;exitDx=0;exitDy=0;" edge="1" parent="1" source="udiWFCo5soZwDzuzJyZp-18" target="udiWFCo5soZwDzuzJyZp-14">
          <mxGeometry width="160" relative="1" as="geometry">
            <mxPoint x="360" y="1160" as="sourcePoint" />
            <mxPoint x="520" y="1150" as="targetPoint" />
          </mxGeometry>
        </mxCell>
      </root>
    </mxGraphModel>
  </diagram>
</mxfile>
